<?xml version="1.0" encoding="UTF-8" standalone="no"?>
<svg width="213px" height="53px" viewBox="0 0 213 53" version="1.1" xmlns="http://www.w3.org/2000/svg" xmlns:xlink="http://www.w3.org/1999/xlink">
    <!-- Generator: Sketch 3.6.1 (26313) - http://www.bohemiancoding.com/sketch -->
    <title>half-earth_logo</title>
    <desc>Created with Sketch.</desc>
    <defs>
        <path id="path-1" d="M6.23110385,0.189726027 L0.67945,0.189726027 L0.67945,27.8688356 L6.23110385,27.8688356 L6.23110385,0.189726027 L6.23110385,0.189726027 Z"></path>
    </defs>
    <g id="Page-1" stroke="none" stroke-width="1" fill="none" fill-rule="evenodd">
        <g id="half-earth_logo" transform="translate(0.000000, -1.000000)">
            <path d="M32.4765577,19.1115068 C32.2378654,19.4526027 31.8489615,19.6560274 31.4374231,19.6560274 L16.4347885,19.6560274 C16.0109038,19.6560274 15.6158269,19.4423288 15.3771346,19.0868493 C15.1507885,18.7478082 15.1055192,18.3245205 15.2577885,17.9567123 C16.6220385,14.6710959 19.6591923,12.8628767 23.8075,12.8628767 C28.3632308,12.8628767 31.4127308,14.6341096 32.6308846,17.9854795 C32.7666923,18.3573973 32.7090769,18.7806849 32.4765577,19.1115068 M24.6573269,49.3724658 C33.6082885,49.3724658 39.8060577,46.9046575 44.1621923,41.6053425 C44.5737308,41.1039726 44.512,40.3621918 44.0222692,39.910137 L36.6125192,33.1108219 C36.38,32.8950685 36.0795769,32.7779452 35.76475,32.7779452 C35.3696731,32.7779452 35.0116346,32.9587671 34.7811731,33.2731507 C32.6205962,36.2320548 29.02375,37.8635616 24.6573269,37.8635616 C20.5069615,37.8635616 15.4717885,34.6971233 14.5890385,29.9834247 C14.5231923,29.63 14.6199038,29.2663014 14.8544808,28.9827397 C15.0972885,28.6909589 15.4553269,28.5224658 15.8318846,28.5224658 L46.4585769,28.5224658 C47.1499615,28.5224658 47.7096538,27.9635616 47.7096538,27.2752055 L47.7096538,25.4094521 C47.7096538,11.019726 38.1043462,1.35191781 23.8075,1.35191781 C9.56826923,1.35191781 0,11.019726 0,25.4094521 C0,39.7416438 9.90984615,49.3724658 24.6573269,49.3724658" id="Fill-4" fill="#0D6BB4"></path>
            <path d="M14.5857462,29.9643151 C15.0590154,32.4876027 16.6948808,34.5670548 18.7752077,35.9540411 L18.6352846,35.9930822 C18.1455538,36.0978767 17.6270154,36.3259589 17.4706308,36.755411 C17.3121885,37.184863 17.0673231,38.1896575 16.4006308,38.9088356 C15.7339385,39.6259589 15.8039,39.8273288 15.7257077,40.1684247 C15.6475154,40.5095205 15.3841308,40.5629452 15.4808423,40.7643151 C15.5775538,40.9656849 15.8923808,41.1567808 15.5940154,41.4465068 C15.29565,41.7362329 14.8655923,42.3218493 15.1022269,42.7677397 C15.3388615,43.2156849 15.7956692,43.715 15.2874192,43.8814384 C14.7791692,44.0478767 12.6391692,43.4869178 12.4375154,42.3937671 C12.2132269,41.1773288 11.9807077,40.7560959 11.9395538,40.7026712 C11.6144385,40.2999315 11.2193615,38.2615753 11.2193615,37.7519863 C11.2193615,37.2465068 10.9312846,37.0430822 10.7893038,36.6937671 C10.6493808,36.3423973 10.9827269,35.8800685 10.9827269,35.5369178 C10.9827269,35.1978767 11.0362269,33.6300685 10.8428038,33.2786986 C10.6493808,32.9293836 10.1493615,32.1239041 10.1493615,31.7026712 C10.1493615,31.2834932 9.22134231,31.205411 8.99293846,30.9588356 C8.76453462,30.7143151 7.46818846,29.4013014 7.74803462,28.5876027 C8.02993846,27.7739041 7.94145769,28.2896575 7.64309231,27.7040411 C7.34472692,27.1163699 7.16159231,25.3307534 7.54638077,24.8930822 C7.93322692,24.455411 8.05668846,24.1389726 8.11636154,23.824589 C8.18632308,23.4588356 8.24805385,22.565 7.51963077,22.6184247 C7.09986154,22.6471918 6.73153462,22.2239041 6.68832308,21.9074658 C6.64305385,21.5930822 6.70478462,21.0156849 6.5484,20.8841781 C6.38995769,20.7526712 6.06484231,20.395137 6.0134,20.1834932 C5.9599,19.9739041 5.83849615,19.6143151 5.71503462,19.5362329 C5.59157308,19.4581507 5.37345769,19.125274 5.23147692,18.8437671 C5.09155385,18.5643151 5.20678462,18.2293836 4.96191923,18.1389726 C4.71499615,18.0485616 4.03184231,17.8739041 3.68203462,17.4259589 C3.33016923,16.9800685 3.22522692,16.7869178 3.13674615,16.6471918 C3.05032308,16.5074658 2.98859231,16.4191096 3.03180385,16.0697945 C3.07707308,15.7204795 3.18201538,15.1759589 3.18201538,14.8266438 C3.18201538,14.4773288 3.27872692,14.004726 3.40836154,13.784863 C3.54005385,13.5670548 3.85693846,12.5376027 3.34868846,12.1739041 C6.92495769,6.10815068 13.1206692,2.19787671 21.0345538,1.47869863 L21.07365,1.51157534 C21.3267462,1.73143836 20.9501885,2.07253425 20.8884577,2.19582192 C20.8267269,2.31705479 20.9584192,2.37047945 21.0242654,2.44856164 C21.0901115,2.52869863 21.1024577,2.97458904 20.8719962,3.06089041 C20.6435923,3.14924658 20.7567654,3.58691781 20.5900923,3.77184932 C20.4234192,3.95472603 19.6785346,4.09445205 19.4604192,3.87664384 C19.2402462,3.65678082 18.8904385,3.29719178 18.6003038,3.34239726 C18.3122269,3.38554795 18.3472077,3.49034247 17.97065,3.57047945 C17.5920346,3.64856164 17.1722654,3.28075342 16.8204,3.51705479 C16.4705923,3.75335616 15.6207654,4.59376712 15.2339192,4.72527397 C14.8491308,4.85678082 14.4725731,5.78349315 14.6906885,6.14308219 C14.9108615,6.50267123 15.5940154,7.24650685 16.3574192,6.52732877 C16.9870731,5.93349315 16.6619577,5.52458904 17.1187654,5.52253425 C17.2463423,5.52047945 17.8739385,5.34787671 17.9747654,5.14445205 C18.0755923,4.94308219 18.5982462,4.22184932 18.8842654,4.57938356 C19.1682269,4.9389726 19.3369577,5.07253425 19.5612462,4.98828767 C19.7855346,4.9040411 20.1271115,5.0889726 19.9604385,5.41979452 C19.7917077,5.75061644 19.5941692,5.9519863 19.9645538,6.3259589 C20.3349385,6.7019863 20.6415346,7.29582192 20.3904962,7.72116438 C20.0941885,8.22458904 19.6209192,8.12184932 18.5920731,8.03349315 C17.9974,7.98417808 18.0200346,8.92732877 18.0138615,9.01979452 C18.0035731,9.18623288 17.16815,9.26636986 15.9685154,9.33828767 C14.7688808,9.41020548 14.5384192,9.87664384 14.1865538,10.1499315 C13.8326308,10.425274 13.4951692,10.6266438 13.1700538,10.6492466 C12.8449385,10.6697945 12.9642846,11.3704795 12.4930731,11.7177397 C12.0218615,12.065 11.1535154,12.4122603 11.0177077,12.7143151 C10.8839577,13.0163699 11.1349962,13.5259589 10.96215,13.934863 C10.7893038,14.3437671 10.7090538,15.0876027 10.1658231,14.9930822 C9.62259231,14.8965068 9.60613077,13.3471918 9.05055385,12.965 C8.49497692,12.584863 8.12665,12.8828082 7.92293846,12.9033562 C7.72128462,12.9259589 7.02784231,12.7923973 6.79738077,12.8643151 C6.56691923,12.9382877 6.20270769,13.1499315 5.87759231,13.565 C5.55247692,13.9780137 5.05451538,14.6971918 5.22736154,15.6958219 C5.40020769,16.6944521 6.24180385,17.0458219 6.47843846,16.8444521 C6.71301538,16.6430822 6.80355385,17.2369178 6.78091923,17.3766438 C6.75828462,17.5163699 6.25415,18.0485616 6.2809,18.4903425 C6.30970769,18.9341781 7.11015,19.0965068 7.23361154,19.4643151 C7.35707308,19.8341781 7.25213077,20.5163699 7.4579,20.7465068 C7.66572692,20.9766438 8.14105385,21.9937671 8.59580385,21.9218493 C9.60613077,21.7656849 9.87157308,20.5266438 10.4415538,20.6129452 C10.8448615,20.674589 12.3140538,21.3506164 12.5939,21.3567808 C12.8737462,21.3629452 13.1309577,21.2725342 13.3943423,21.3074658 C13.6577269,21.3403425 14.3594,21.9506164 14.5116692,22.2423973 C14.6618808,22.5321233 16.4170923,22.9965068 16.5673038,23.2780137 C16.7195731,23.5574658 17.1228808,23.3889726 17.2854385,23.4732192 C17.4479962,23.5574658 18.45215,25.5732192 18.6867269,25.875274 C18.9233615,26.1773288 19.3925154,25.9081507 19.6353231,26.0026712 C19.8760731,26.0992466 20.3287654,26.8266438 20.8390731,27.1841781 C21.3493808,27.5417123 21.9378808,27.4204795 22.3926308,27.4307534 C22.8473808,27.4430822 23.6313615,28.0204795 23.6313615,28.5074658 L23.6313615,28.5218493 L15.8141885,28.5218493 C14.9972846,28.5218493 14.4890346,29.304726 14.5734,29.8656849 L14.5857462,29.9643151 Z M47.6878423,25.4088356 L47.6878423,25.3656849 L47.6878423,25.2115753 L47.6837269,25.2156849 C47.6364,15.4225342 43.16915,7.89171233 35.7717462,4.09034247 L35.6153615,4.10267123 C35.4034192,4.11705479 34.23465,3.93212329 34.1029577,3.84171233 C33.9712654,3.74924658 33.5062269,3.97116438 33.2778231,3.84171233 C33.0514769,3.71020548 32.7325346,3.63006849 32.6810923,3.74924658 C32.62965,3.86636986 32.5638038,4.20952055 32.8271885,4.41910959 C33.0905731,4.62869863 33.1173231,4.96979452 33.1029192,5.1280137 C33.0905731,5.28623288 33.4835923,6.23143836 33.7346308,6.20472603 C33.9836115,6.1780137 34.1297077,5.46910959 34.3910346,5.83691781 C34.6544192,6.20472603 34.7984577,6.55815068 34.8910538,6.63828767 C34.98365,6.71636986 35.3787269,7.32047945 35.6153615,7.07184932 C35.8519962,6.82116438 35.8766885,6.50678082 35.9034385,7.28143836 C35.9301885,8.05609589 36.3376115,7.81979452 36.3767077,7.92458904 C36.4158038,8.02938356 36.4569577,9.24993151 36.2985154,9.31568493 C36.1400731,9.38143836 36.2717654,9.67116438 36.1009769,9.69787671 C35.9301885,9.72253425 35.2737846,9.50061644 35.2737846,9.80267123 C35.2737846,10.104726 35.4692654,10.8793836 34.7202654,10.5629452 C33.9712654,10.2485616 33.4671308,10.3677397 33.2778231,10.9184247 C33.0905731,11.4691096 33.6955346,12.4019863 34.8519577,12.4286986 C36.0083808,12.455411 36.53515,11.5882877 36.8108808,11.0766438 C37.0866115,10.5629452 37.4405346,11.2533562 37.5742846,11.2718493 C37.9426115,11.325274 38.4837846,10.7273288 38.7574577,10.9060959 C39.2842269,11.2471918 38.6319385,11.6786986 38.88915,12.0218493 C39.0475923,12.2314384 40.0723231,12.4677397 40.1896115,12.0341781 C40.3089577,11.6006164 40.8748231,11.7855479 40.7822269,12.1389726 C40.6896308,12.4944521 41.3089962,12.9136301 41.4262846,12.5602055 C41.5456308,12.204726 41.9654,12.2191096 42.0703423,12.5334932 C42.1752846,12.8478767 43.0436308,12.9526712 43.2802654,12.7697945 C43.5169,12.584863 43.8337846,13.1108904 43.8070346,13.3615753 C43.7802846,13.6102055 44.0292654,13.6882877 44.1218615,13.8588356 C44.2144577,14.0293836 44.0704192,15.1862329 43.54365,14.7382877 C43.0168808,14.2923973 42.7802462,14.2800685 42.4654192,14.4239041 C42.1505923,14.5677397 41.2822462,14.5944521 40.6628808,14.1218493 C40.0455731,13.6492466 38.5084769,13.0841781 37.2327077,13.2958219 C35.9569385,13.505411 35.2861308,13.6882877 34.9959962,13.9903425 C34.7079192,14.2923973 34.93015,14.6663699 34.5618231,15.0177397 C34.1955538,15.3691096 33.5185731,15.8026712 33.2778231,15.9608904 C33.0370731,16.1170548 32.9053808,16.3286986 32.7880923,16.9060959 C32.6687462,17.4834932 32.9321308,18.2191096 32.8539385,18.5602055 C32.7736885,18.9013014 32.8251308,19.345137 32.6810923,19.655411 C32.5370538,19.9656849 31.88065,22.4334932 32.3662654,22.8937671 C32.8539385,23.3519863 34.4321885,24.5478767 34.8519577,24.5478767 C35.2737846,24.5478767 37.4816885,23.9170548 38.0475538,24.0362329 C38.6134192,24.1533562 39.2430731,24.665 39.6114,24.6526712 C39.9797269,24.6403425 40.5455923,24.8108904 40.5455923,25.3615753 C40.5455923,25.9143151 40.4797462,26.674589 40.8357269,27.0814384 C41.18965,27.4882877 41.0065154,28.4807534 41.0065154,28.4807534 L40.9879962,28.5218493 L46.4367654,28.5218493 C47.1260923,28.5218493 47.6878423,27.9629452 47.6878423,27.274589 L47.6878423,25.4108904 L47.6878423,25.4088356 Z M25.6993423,4.86089041 C25.1602269,4.98828767 24.8371692,4.83417808 25.0347077,5.48965753 C25.2322462,6.14308219 25.3742269,6.45746575 25.8330923,6.06294521 C26.2919577,5.66842466 26.3125346,4.715 25.6993423,4.86089041 L25.6993423,4.86089041 Z M10.5814769,17.8862329 C9.89626538,17.9088356 9.5979,18.3095205 9.79749615,18.4965068 C9.99709231,18.6834932 12.3161115,18.8211644 12.4539769,18.4595205 C12.5918423,18.0978767 11.9683615,18.0115753 11.7667077,17.6869178 C11.5671115,17.3622603 10.96215,17.8739041 10.5814769,17.8862329 L10.5814769,17.8862329 Z M9.20899615,15.7800685 C8.91063077,15.7718493 8.39003462,15.7821233 8.67193846,16.2588356 C8.95384231,16.7355479 10.2254962,17.2430822 10.5464962,16.9985616 C10.8674962,16.7540411 9.94359231,15.7985616 9.20899615,15.7800685 L9.20899615,15.7800685 Z M24.65815,49.3718493 C29.8311885,49.3718493 32.7634,48.5108904 32.7634,48.5108904 C32.2674962,48.065 30.9382269,46.8834932 30.5184577,47.0930822 C30.0966308,47.3026712 30.0060923,47.9458219 29.3620346,47.6437671 C28.7159192,47.3437671 28.3229,47.4732192 27.9545731,47.7362329 C27.5862462,47.9992466 26.7179,47.8533562 26.1664385,47.5780137 C25.6129192,47.3026712 25.3104385,47.5533562 24.5881885,47.6971918 C23.8638808,47.8410274 22.9831885,47.4485616 22.5099192,47.5656849 C22.03665,47.6828082 21.8391115,48.2211644 21.5119385,47.9992466 C21.1827077,47.775274 18.9994962,47.3540411 18.8945538,47.015 C18.7896115,46.6718493 18.8678038,46.1355479 18.5262269,46.1725342 C18.18465,46.2136301 17.8286692,46.8444521 17.4089,47.0006164 C16.9870731,47.1588356 15.8676885,47.165 15.4211692,47.9334932 C15.4211692,47.9334932 19.1558808,49.3718493 24.65815,49.3718493 L24.65815,49.3718493 Z M39.6216885,35.8739041 C39.5044,36.1081507 38.7224769,36.9300685 38.9467654,37.4293836 C39.1710538,37.9286986 39.3994577,38.2286986 39.1854577,38.8471918 C38.9735154,39.4636301 38.6833808,39.9239041 39.0126115,40.3574658 C39.3418423,40.7910274 41.5847269,40.655411 43.0436308,39.0115753 L39.6216885,35.8739041 Z M32.0041115,6.97938356 C31.7695346,6.83554795 31.4649962,7.30815068 31.4649962,7.58349315 C31.4649962,7.85883562 32.0308615,8.2389726 32.2942462,7.83212329 C32.5555731,7.42527397 32.7531115,7.43965753 32.0041115,6.97938356 L32.0041115,6.97938356 Z M32.4382846,5.96020548 C32.1625538,5.86363014 31.8456692,5.84924658 31.8724192,6.11226027 C31.8991692,6.37527397 31.9650154,6.4410274 32.1872462,6.63828767 C32.4115346,6.83554795 32.7263615,7.05746575 32.7531115,7.30815068 C32.7798615,7.55678082 32.4238808,8.42390411 32.9115538,8.60678082 C33.3971692,8.79171233 33.7922462,8.97458904 34.1482269,8.79171233 C34.50215,8.60678082 34.9363231,7.80746575 34.1482269,7.37390411 C33.3580731,6.94034247 33.1090923,6.32184932 33.0823423,6.1780137 C33.0555923,6.03417808 32.6769769,6.04445205 32.4382846,5.96020548 L32.4382846,5.96020548 Z M24.8515731,2.16089041 C25.2322462,2.13417808 25.5285538,1.83417808 25.6787654,1.83212329 C26.0079962,1.83006849 26.1005923,2.18554795 26.3639769,2.22664384 C26.6253038,2.26568493 27.1911692,2.18554795 27.2714192,2.5410274 C27.3496115,2.89650685 26.3763231,3.61773973 26.1005923,3.58691781 C25.8248615,3.55815068 25.5079769,3.78828767 25.3639385,3.98554795 C25.2199,4.18280822 25.1149577,4.22184932 24.7322269,4.18280822 C24.3515538,4.14376712 24.2589577,5.24513699 23.5490538,5.33760274 C22.83915,5.43006849 22.5634192,4.31431507 22.7444962,3.69582192 C22.9276308,3.07938356 23.0490346,2.96020548 22.8000538,2.56773973 C22.5490154,2.17321918 23.2218808,1.79924658 23.5490538,1.83212329 C24.0881692,1.88349315 24.4688423,2.18554795 24.8515731,2.16089041 L24.8515731,2.16089041 Z" id="Fill-6" fill="#73B62E"></path>
            <path d="M57.7110673,28.6938356 L60.6082981,28.6938356 C61.3408365,28.6938356 61.9375673,28.0979452 61.9375673,27.3643836 L61.9375673,18.2020548 C61.9375673,15.4979452 63.0939904,14.1828767 65.4767981,14.1828767 C67.5674135,14.1828767 68.3822596,15.3109589 68.3822596,18.2020548 L68.3822596,28.0712329 C68.3822596,28.4143836 68.6621058,28.6938356 69.0057404,28.6938356 L73.2733942,28.6938356 C73.6170288,28.6938356 73.896875,28.4143836 73.896875,28.0712329 L73.896875,18.2020548 C73.896875,12.4136986 71.8782788,10.0527397 66.9295288,10.0527397 C65.3204135,10.0527397 64.0611058,10.3219178 63.1907019,10.8520548 C63.0528365,10.9363014 62.8964519,10.9815068 62.742125,10.9815068 C62.2894327,10.9815068 61.9375673,10.6321918 61.9375673,10.1883562 L61.9375673,2.95547945 C61.9375673,2.25479452 61.3655288,1.68356164 60.6617981,1.68356164 L57.6699135,1.68356164 C56.9826442,1.68356164 56.4229519,2.24041096 56.4229519,2.92671233 L56.4229519,27.4075342 C56.4229519,28.1164384 57.0011635,28.6938356 57.7110673,28.6938356" id="Fill-8" fill="#0D6BB4"></path>
            <path d="M83.8561058,24.8240411 C82.4630481,24.8240411 81.6852404,24.3493836 81.5453173,23.4103425 C81.4486058,22.7939041 81.600875,22.2144521 81.975375,21.7767808 C82.4013173,21.2774658 83.0865288,20.9918493 83.8561058,20.9918493 L86.6051827,20.9918493 C86.8767981,20.9918493 87.0969712,21.2117123 87.0969712,21.4829452 L87.0969712,22.6295205 C87.0969712,23.5110274 86.2347981,24.8240411 83.8561058,24.8240411 M84.8623173,10.0171918 C82.0412212,10.0171918 79.5349519,11.0302055 77.615125,12.9493836 C77.5101827,13.0521233 77.4628558,13.1959589 77.481375,13.3459589 C77.5019519,13.5000685 77.5924904,13.6336301 77.7282981,13.7117123 L80.9465288,15.5528082 C81.0267788,15.5980137 81.1152596,15.6226712 81.2057981,15.6226712 C81.3292596,15.6226712 81.4444904,15.5774658 81.5309135,15.495274 C82.2655096,14.8007534 83.0392019,14.5562329 84.489875,14.5562329 C85.7985673,14.5562329 86.7697981,15.1993836 87.0270096,16.235 C87.0619904,16.3726712 87.0290673,16.5165068 86.9405865,16.6315753 C86.843875,16.7528082 86.6957212,16.824726 86.5434519,16.824726 L84.2285481,16.824726 C79.2489327,16.824726 76.0327596,19.3665068 76.0327596,23.2993836 C76.0327596,27.104863 78.310625,28.9541781 83.0001058,28.9541781 C84.6009904,28.9541781 86.1730673,28.3541781 87.0969712,27.3904795 L87.0969712,28.2041781 C87.0969712,28.4733562 87.3171442,28.6932192 87.5887596,28.6932192 L92.1197981,28.6932192 C92.3914135,28.6932192 92.6115865,28.4733562 92.6115865,28.2041781 L92.6115865,15.8569178 C92.6115865,13.1630822 90.5806442,10.0171918 84.8623173,10.0171918" id="Fill-10" fill="#0D6BB4"></path>
            <g id="Group-14" transform="translate(94.653846, 0.825000)">
                <mask id="mask-2" fill="white">
                    <use xlink:href="#path-1"></use>
                </mask>
                <g id="Clip-13"></g>
                <path d="M1.27823846,27.8688356 L5.63437308,27.8688356 C5.96360385,27.8688356 6.23110385,27.5996575 6.23110385,27.2708904 L6.23110385,0.784589041 C6.23110385,0.455821918 5.96360385,0.18869863 5.63437308,0.18869863 L1.27823846,0.18869863 C0.94695,0.18869863 0.67945,0.455821918 0.67945,0.784589041 L0.67945,27.2708904 C0.67945,27.5996575 0.94695,27.8688356 1.27823846,27.8688356" id="Fill-12" fill="#0D6BB4" mask="url(#mask-2)"></path>
            </g>
            <path d="M103.701108,14.8531507 L104.390435,14.8531507 C104.764935,14.8531507 105.069473,15.1572603 105.069473,15.5312329 L105.069473,28.0141096 C105.069473,28.3880822 105.376069,28.6942466 105.750569,28.6942466 L109.90505,28.6942466 C110.27955,28.6942466 110.584088,28.3880822 110.584088,28.0141096 L110.584088,15.5312329 C110.584088,15.1572603 110.888627,14.8531507 111.265185,14.8531507 L114.263242,14.8531507 C114.637742,14.8531507 114.942281,14.5490411 114.942281,14.1750685 L114.942281,10.9921918 C114.942281,10.6182192 114.637742,10.3141096 114.263242,10.3141096 L110.584088,10.3141096 L110.584088,9.45931507 C110.584088,7.62232877 110.826896,5.92506849 112.596512,5.92506849 C112.890762,5.92506849 113.468973,5.95383562 114.045127,6.15520548 C114.117146,6.17986301 114.191223,6.19424658 114.267358,6.19424658 C114.6398,6.19424658 114.942281,5.89013699 114.942281,5.51616438 L114.942281,2.70726027 C114.942281,2.45863014 114.804415,2.22643836 114.578069,2.10520548 C113.656223,1.60178082 112.763185,1.3490411 111.925704,1.3490411 C107.184781,1.3490411 105.069473,3.84972603 105.069473,9.45931507 L105.069473,10.3141096 L103.701108,10.3141096 C103.326608,10.3141096 103.022069,10.6182192 103.022069,10.9921918 L103.022069,14.1750685 C103.022069,14.5490411 103.326608,14.8531507 103.701108,14.8531507" id="Fill-15" fill="#0D6BB4"></path>
            <path d="M122.977158,16.4528082 L116.736177,16.4528082 C116.382254,16.4528082 116.096235,16.7404795 116.096235,17.0918493 L116.096235,20.5007534 C116.096235,20.8541781 116.382254,21.1397945 116.736177,21.1397945 L122.767273,21.1397945 C122.950408,21.1397945 123.117081,21.0678767 123.240542,20.9343151 C123.359888,20.8007534 123.419562,20.6302055 123.4031,20.4534932 C123.37635,20.1432192 123.361946,19.835 123.361946,19.5411644 C123.361946,18.7480137 123.442196,17.965137 123.600638,17.215137 C123.639735,17.0281507 123.594465,16.8370548 123.473062,16.6891096 C123.351658,16.5391096 123.170581,16.4528082 122.977158,16.4528082" id="Fill-17" fill="#0D6BB4"></path>
            <path d="M138.636813,17.019726 C138.54216,17.1532877 138.38989,17.2334247 138.227333,17.2334247 L132.30941,17.2334247 C132.142737,17.2334247 131.98841,17.1512329 131.893756,17.0094521 C131.803217,16.8758904 131.786756,16.7094521 131.846429,16.5635616 C132.385544,15.2690411 133.583121,14.5560274 135.216929,14.5560274 C137.013294,14.5560274 138.217044,15.2546575 138.698544,16.5758904 C138.752044,16.7217808 138.727352,16.8882192 138.636813,17.019726 M135.55439,28.9539726 C139.083333,28.9539726 141.527871,27.98 143.243987,25.890274 C143.406544,25.6930137 143.38391,25.3991781 143.190487,25.2224658 L140.268563,22.5409589 C140.175967,22.4567123 140.056621,22.4094521 139.93316,22.4094521 C139.778833,22.4094521 139.636852,22.4813699 139.546313,22.6046575 C138.694429,23.7717808 137.276679,24.4149315 135.55439,24.4149315 C133.916467,24.4149315 131.930794,23.1656164 131.583044,21.3080822 C131.556294,21.1683562 131.59539,21.0245205 131.687987,20.9135616 C131.78264,20.7964384 131.924621,20.7306849 132.072775,20.7306849 L144.151429,20.7306849 C144.423044,20.7306849 144.643217,20.5108219 144.643217,20.239589 L144.643217,19.5039726 C144.643217,13.8286301 140.857063,10.0169863 135.216929,10.0169863 C129.601487,10.0169863 125.829737,13.8286301 125.829737,19.5039726 C125.829737,25.1567123 129.737294,28.9539726 135.55439,28.9539726" id="Fill-19" fill="#0D6BB4"></path>
            <path d="M153.855917,24.7866438 C152.46286,24.7866438 151.685052,24.3119863 151.547187,23.3729452 C151.450475,22.7565068 151.600687,22.1770548 151.977244,21.7393836 C152.403187,21.2400685 153.088398,20.9544521 153.855917,20.9544521 L156.53709,20.9544521 C156.845744,20.9544521 157.096783,21.205137 157.096783,21.515411 L157.096783,22.5921233 C157.096783,23.4736301 156.23461,24.7866438 153.855917,24.7866438 M154.862129,9.97979452 C152.08836,9.97979452 149.612956,10.9619863 147.703417,12.8236301 C147.573783,12.9510274 147.509994,13.1277397 147.532629,13.3065068 C147.555263,13.4832192 147.65609,13.6332192 147.80836,13.7215753 L150.913417,15.494863 C150.99984,15.5441781 151.096552,15.5708904 151.195321,15.5708904 C151.333187,15.5708904 151.462821,15.5215753 151.56159,15.4311644 C152.277667,14.765411 153.071937,14.5188356 154.489687,14.5188356 C155.73459,14.5188356 156.666725,15.0859589 156.981552,16.0373288 C157.039167,16.2119863 157.01036,16.4071918 156.90336,16.555137 C156.79636,16.7030822 156.631744,16.7873288 156.44861,16.7873288 L154.22836,16.7873288 C149.248744,16.7873288 146.032571,19.3291096 146.032571,23.2619863 C146.032571,27.065411 148.310437,28.9167808 152.999917,28.9167808 C154.60286,28.9167808 156.172879,28.3167808 157.096783,27.3530822 L157.096783,28.094863 C157.096783,28.405137 157.347821,28.6558219 157.658533,28.6558219 L162.051706,28.6558219 C162.36036,28.6558219 162.611398,28.405137 162.611398,28.094863 L162.611398,15.8195205 C162.611398,13.1256849 160.582513,9.97979452 154.862129,9.97979452" id="Fill-21" fill="#0D6BB4"></path>
            <path d="M174.990269,14.1750685 C175.286577,14.1750685 175.589058,14.2120548 176.103481,14.3908219 C176.169327,14.4154795 176.241346,14.4278082 176.311308,14.4278082 C176.617904,14.4278082 176.879231,14.21 176.934788,13.91 L177.457442,11.0086301 C177.510942,10.7168493 177.3525,10.4230137 177.082942,10.3120548 C176.410077,10.0367123 175.794827,10.0161644 174.858577,10.0161644 C173.691865,10.0161644 171.716481,10.6058904 170.986,11.9147945 L170.986,10.9079452 C170.986,10.5586301 170.702038,10.2771233 170.354288,10.2771233 L166.101038,10.2771233 C165.753288,10.2771233 165.471385,10.5586301 165.471385,10.9079452 L165.471385,28.0264384 C165.471385,28.3736986 165.753288,28.6552055 166.101038,28.6552055 L170.354288,28.6552055 C170.702038,28.6552055 170.986,28.3736986 170.986,28.0264384 L170.986,18.3134247 C170.986,15.5332877 172.142423,14.1832877 174.525231,14.1832877 C174.609596,14.1832877 174.687788,14.1812329 174.7845,14.1791781 C174.854462,14.1771233 174.922365,14.1750685 174.990269,14.1750685" id="Fill-23" fill="#0D6BB4"></path>
            <path d="M191.715192,10.2767123 L188.568981,10.2767123 C188.233577,10.2767123 187.961962,10.0054795 187.961962,9.67260274 L187.961962,5.6 C187.961962,5.26506849 187.690346,4.99383562 187.354942,4.99383562 L183.052308,4.99383562 C182.721019,4.99383562 182.449404,5.26506849 182.449404,5.6 L182.449404,9.67260274 C182.449404,10.0054795 182.175731,10.2767123 181.842385,10.2767123 L181.004904,10.2767123 C180.671558,10.2767123 180.399942,10.5479452 180.399942,10.8828767 L180.399942,14.2116438 C180.399942,14.5445205 180.671558,14.8157534 181.004904,14.8157534 L181.842385,14.8157534 C182.175731,14.8157534 182.449404,15.0869863 182.449404,15.4219178 L182.449404,20.8424658 C182.449404,26.680137 184.371288,28.9547945 189.303577,28.9547945 C190.141058,28.9547945 191.023808,28.7061644 192.005327,28.1945205 C192.19875,28.0938356 192.320154,27.890411 192.320154,27.6643836 L192.320154,24.5924658 C192.320154,24.2184932 192.009442,23.9863014 191.71725,23.9863014 C191.622596,23.9863014 191.53,24.0109589 191.445635,24.0561644 C190.972365,24.3006849 190.505269,24.4157534 189.974385,24.4157534 C189.085462,24.4157534 188.509308,24.0068493 188.213,23.1684932 C187.961962,22.4616438 187.961962,21.5678082 187.961962,20.9143836 L187.961962,15.4219178 C187.961962,15.0869863 188.233577,14.8157534 188.568981,14.8157534 L191.715192,14.8157534 C192.048538,14.8157534 192.320154,14.5445205 192.320154,14.2116438 L192.320154,10.8828767 C192.320154,10.5479452 192.048538,10.2767123 191.715192,10.2767123" id="Fill-25" fill="#0D6BB4"></path>
            <path d="M206.007512,10.0165753 C203.733762,10.0165753 202.132877,10.5734247 201.375646,11.6234247 C201.338608,11.6768493 201.28305,11.7076712 201.217204,11.7076712 C201.106088,11.7076712 201.01555,11.6172603 201.01555,11.5063014 L201.01555,1.8960274 C201.01555,1.75835616 200.902377,1.64534247 200.764512,1.64534247 L195.751973,1.64534247 C195.614108,1.64534247 195.500935,1.75835616 195.500935,1.8960274 L195.500935,28.4049315 C195.500935,28.5446575 195.614108,28.6556164 195.751973,28.6556164 L200.764512,28.6556164 C200.902377,28.6556164 201.01555,28.5446575 201.01555,28.4049315 L201.01555,18.1638356 C201.01555,15.459726 202.174031,14.1467123 204.554781,14.1467123 C206.645396,14.1467123 207.460242,15.2727397 207.460242,18.1638356 L207.460242,28.4049315 C207.460242,28.5446575 207.573415,28.6556164 207.711281,28.6556164 L212.723819,28.6556164 C212.861685,28.6556164 212.974858,28.5446575 212.974858,28.4049315 L212.974858,18.1638356 C212.974858,12.3775342 210.956262,10.0165753 206.007512,10.0165753" id="Fill-27" fill="#0D6BB4"></path>
            <path d="M63.6024462,43.5588356 C63.6024462,45.1965068 62.5406769,46.5280137 61.2361,46.5280137 C60.4480038,46.5280137 59.7031192,45.9937671 59.2483692,45.1060959 C59.0261385,44.6417123 58.9150231,44.1197945 58.9150231,43.5588356 C58.9150231,43.0430822 59.0405423,42.4533562 59.2483692,41.9910274 C59.6825423,41.1280137 60.4624077,40.5691096 61.2361,40.5691096 C62.5406769,40.5691096 63.6024462,41.9108904 63.6024462,43.5588356 M61.4459846,38.2286986 C60.5858692,38.2286986 59.7669077,38.5656849 59.3121577,39.1081507 L59.3121577,38.625274 C59.3121577,38.4876027 59.1989846,38.374589 59.0611192,38.374589 L56.7318115,38.374589 C56.4457923,38.374589 56.2132731,38.6067808 56.2132731,38.8923973 L56.2132731,53.0314384 C56.2132731,53.3170548 56.4457923,53.5492466 56.7318115,53.5492466 L58.7936192,53.5492466 C59.0796385,53.5492466 59.3121577,53.3170548 59.3121577,53.0314384 L59.3121577,48.9382877 C59.3121577,48.654726 59.5426192,48.4204795 59.8265808,48.4204795 C59.9006577,48.4204795 59.9706192,48.4369178 60.0385231,48.4677397 C60.5714654,48.7019863 61.2361,48.8684247 61.6558692,48.8684247 C64.6395231,48.8684247 66.7219077,46.6841781 66.7219077,43.5588356 C66.7219077,40.4704795 64.5037154,38.2286986 61.4459846,38.2286986" id="Fill-29" fill="#0D6BB4"></path>
            <path d="M74.3318712,38.3630822 C73.9820635,38.2377397 73.6425442,38.2274658 73.1651596,38.2274658 C72.5087558,38.2274658 71.3996596,38.5603425 70.9881212,39.2959589 L70.9881212,38.6260959 C70.9881212,38.4863699 70.8770058,38.375411 70.7370827,38.375411 L68.3357558,38.375411 C68.0908904,38.375411 67.8912942,38.574726 67.8912942,38.8213014 L67.8912942,48.254863 C67.8912942,48.4993836 68.0908904,48.7007534 68.3357558,48.7007534 L70.5416019,48.7007534 C70.788525,48.7007534 70.9881212,48.4993836 70.9881212,48.254863 L70.9881212,42.8897945 C70.9881212,41.3281507 71.6383519,40.5699315 72.9758519,40.5699315 C73.0272942,40.5699315 73.0725635,40.5678767 73.1198904,40.5678767 C73.1610442,40.5658219 73.1980827,40.5637671 73.2371788,40.5637671 C73.3585827,40.5637671 73.5087942,40.5719863 73.7742365,40.6562329 C73.8195058,40.6726712 73.864775,40.6788356 73.9100442,40.6788356 C74.1261019,40.6788356 74.3092365,40.524726 74.3483327,40.3130822 L74.6096596,38.8603425 C74.6487558,38.644589 74.5314673,38.4370548 74.3318712,38.3630822" id="Fill-31" fill="#0D6BB4"></path>
            <path d="M80.6553654,40.779726 C82.0031538,40.779726 83.0217115,41.9735616 83.0217115,43.559863 C83.0217115,45.1317808 82.0031538,46.3173973 80.6553654,46.3173973 C79.3199231,46.3173973 78.3116538,45.1317808 78.3116538,43.559863 C78.3116538,41.9735616 79.3199231,40.779726 80.6553654,40.779726 M80.6553654,38.2276712 C77.6038077,38.2276712 75.2127692,40.570137 75.2127692,43.559863 C75.2127692,46.5352055 77.6038077,48.8673973 80.6553654,48.8673973 C83.7707115,48.8673973 86.1185385,46.5865753 86.1185385,43.559863 C86.1185385,40.570137 83.7192692,38.2276712 80.6553654,38.2276712" id="Fill-33" fill="#0D6BB4"></path>
            <path d="M90.8973231,38.375411 L88.6174,38.375411 C88.3910538,38.375411 88.2079192,38.5582877 88.2079192,38.7822603 L88.2079192,47.9486986 C88.2079192,49.4795205 87.3436885,49.6007534 87.0782462,49.6007534 C86.6337846,49.6007534 86.3539385,49.5555479 86.1111308,49.444589 C86.0617462,49.4219863 86.0082462,49.4096575 85.9568038,49.4096575 C85.7366308,49.4096575 85.5514385,49.6007534 85.5514385,49.8267808 L85.5514385,51.6329452 C85.5514385,51.795274 85.64815,51.9411644 85.7983615,52.0069178 C86.9877077,52.5267808 87.1255731,52.5267808 88.1873423,52.5267808 C90.3149962,52.5267808 91.3068038,51.0699315 91.3068038,47.9486986 L91.3068038,38.7822603 C91.3068038,38.5582877 91.1236692,38.375411 90.8973231,38.375411" id="Fill-35" fill="#0D6BB4"></path>
            <path d="M89.7991327,33.8815753 C88.8711135,33.8815753 88.1468058,34.5514384 88.1468058,35.4062329 C88.1468058,36.2856849 88.8711135,36.9760959 89.7991327,36.9760959 C90.7148058,36.9760959 91.4329404,36.2856849 91.4329404,35.4062329 C91.4329404,34.5514384 90.7148058,33.8815753 89.7991327,33.8815753" id="Fill-37" fill="#0D6BB4"></path>
            <path d="M96.1748923,41.8523288 C96.4876615,41.159863 97.1522962,40.779726 98.0453346,40.779726 C99.0412577,40.779726 99.6914885,41.1413699 99.9795654,41.8584932 C100.016604,41.9509589 100.004258,42.059863 99.9466423,42.1441096 C99.8869692,42.230411 99.7902577,42.2838356 99.6873731,42.2838356 L96.4629692,42.2838356 C96.3559692,42.2838356 96.2572,42.2283562 96.1975269,42.1379452 C96.1419692,42.0516438 96.1316808,41.9447945 96.1748923,41.8523288 M98.0453346,38.2276712 C94.8908923,38.2276712 92.7694115,40.3708219 92.7694115,43.5578082 C92.7694115,46.7345205 94.9649692,48.8673973 98.2325846,48.8673973 C100.201796,48.8673973 101.570162,48.3269863 102.533162,47.1721918 C102.638104,47.0489041 102.6237,46.8639726 102.500238,46.7489041 L100.909642,45.29 C100.849969,45.2365753 100.773835,45.2057534 100.693585,45.2057534 C100.598931,45.2057534 100.514565,45.2468493 100.463123,45.3167123 C99.9836808,45.9639726 99.1914692,46.3173973 98.2325846,46.3173973 C97.3436615,46.3173973 96.2427962,45.670137 96.0143923,44.6242466 C95.9938154,44.5338356 96.01645,44.4393151 96.0761231,44.3653425 C96.1357962,44.2913699 96.2263346,44.2482192 96.3189308,44.2482192 L103.088738,44.2482192 C103.226604,44.2482192 103.339777,44.1372603 103.339777,43.9975342 L103.339777,43.5578082 C103.339777,40.3708219 101.212123,38.2276712 98.0453346,38.2276712" id="Fill-39" fill="#0D6BB4"></path>
            <path d="M109.90896,40.779726 C110.314325,40.779726 111.316421,40.8742466 111.88846,41.7639726 C111.946075,41.8543836 112.044844,41.9078082 112.153902,41.9078082 C112.230037,41.9078082 112.306171,41.8790411 112.363787,41.8256164 L113.997594,40.3523288 C114.06344,40.2927397 114.100479,40.2084932 114.102537,40.1180822 C114.104594,40.0317808 114.073729,39.9516438 114.014056,39.8920548 C112.919363,38.8030137 111.499556,38.2276712 109.90896,38.2276712 C106.857402,38.2276712 104.466363,40.570137 104.466363,43.559863 C104.466363,46.5352055 106.857402,48.8673973 109.90896,48.8673973 C111.499556,48.8673973 112.919363,48.2920548 114.014056,47.2050685 C114.073729,47.1454795 114.104594,47.0653425 114.102537,46.9769863 C114.100479,46.8886301 114.06344,46.8023288 113.997594,46.7447945 L112.374075,45.279726 C112.314402,45.2263014 112.242383,45.199589 112.16419,45.199589 C112.053075,45.199589 111.952248,45.2550685 111.894633,45.349589 C111.511902,45.9845205 110.824633,46.3173973 109.90896,46.3173973 C108.573517,46.3173973 107.565248,45.1317808 107.565248,43.559863 C107.565248,41.9735616 108.573517,40.779726 109.90896,40.779726" id="Fill-41" fill="#0D6BB4"></path>
            <path d="M121.506731,38.375411 L119.883212,38.375411 C119.656865,38.375411 119.471673,38.1904795 119.471673,37.9623973 L119.471673,35.8192466 C119.471673,35.5911644 119.286481,35.4062329 119.058077,35.4062329 L116.786385,35.4062329 C116.557981,35.4062329 116.372788,35.5911644 116.372788,35.8192466 L116.372788,37.9623973 C116.372788,38.1904795 116.189654,38.375411 115.96125,38.375411 L115.636135,38.375411 C115.407731,38.375411 115.222538,38.5603425 115.222538,38.7863699 L115.222538,40.5123973 C115.222538,40.7404795 115.407731,40.925411 115.636135,40.925411 L115.96125,40.925411 C116.189654,40.925411 116.372788,41.1103425 116.372788,41.3363699 L116.372788,44.3117123 C116.372788,48.0925342 117.911942,48.8671918 120.224788,48.8671918 C120.685712,48.8671918 121.169269,48.7356849 121.704269,48.4623973 C121.835962,48.394589 121.920327,48.2528082 121.920327,48.0986986 L121.920327,46.5267808 C121.920327,46.3028082 121.73925,46.1260959 121.508788,46.1260959 C121.445,46.1260959 121.383269,46.1384247 121.323596,46.1671918 C121.095192,46.2678767 120.860615,46.3171918 120.601346,46.3171918 C120.109558,46.3171918 119.778269,46.0808904 119.611596,45.6165068 C119.469615,45.2199315 119.471673,44.7165068 119.471673,44.3486986 L119.471673,41.3363699 C119.471673,41.1103425 119.656865,40.925411 119.883212,40.925411 L121.506731,40.925411 C121.735135,40.925411 121.920327,40.7404795 121.920327,40.5123973 L121.920327,38.7863699 C121.920327,38.5603425 121.735135,38.375411 121.506731,38.375411" id="Fill-43" fill="#0D6BB4"></path>
        </g>
    </g>
</svg>